# xmcd
# 
# Track frame offsets:
#     150
#     22007
#     43827
#     62417
# 
# Disc length: 1076
# 
# Revision: 0
# Processed by: cddbd v1.5.2PL0 Copyright (c) Steve Scherf et al.
# Submitted via: fre:ac v1.0.17
# 
DISCID=2e043204
DTITLE=Gunshot - Clear From Present Danger - Interception Squad (Single)
DYEAR=1991
DGENRE=Hip-Hop
TTITLE0=Clear From Present Danger (Vocal)
TTITLE1=Clear From Present Danger (Instrumental)
TTITLE2=Interception Squad (Vocal)
TTITLE3=Interception Squad (Instrumental)
EXTD=
EXTT0=
EXTT1=
EXTT2=
EXTT3=
PLAYORDER=
